<svg xmlns="http://www.w3.org/2000/svg" style="display: none;"><symbol id="woodworking" viewBox="0 0 56 56"><title>woodworking</title><path id="Shape" d="m48.506 6.08-2.829-2.828-2.828 2.828c-.2510745.25995658-.6228779.3642126-.9725073.27269716-.3496295-.09151544-.6226744-.3645604-.7141899-.71418984-.0915154-.34962943.0127406-.72143285.2726972-.97250732l2.828-2.829-1.63-1.63c-.2769119-.2608453-.7090881-.2608453-.986 0l-14.106 14.106 3.644 3.47c2.3345126-2.1405543 5.387681-3.3264899 8.555-3.323.7457206.0022588 1.489841.0691761 2.224.2 3.463853.6241757 7.0126039-.5009923 9.484-3.007l1.3-1.323-2.828-2.836-2.828 2.828c-.3923789.3789722-1.0160848.3735524-1.4018186-.0121814-.3857338-.38573382-.3911536-1.00943971-.0121814-1.4018186zm-8.485 2.828-2.829 2.828c-.3923789.3789722-1.0160848.3735524-1.4018186-.0121814s-.3911536-1.0094397-.0121814-1.4018186l2.828-2.828c.2525868-.25276541.6208353-.35157685.96603-.25921299.3451946.09236386.6148921.36187074.7075.70700001s-.0059432.71344758-.25853.96621298z"/><path id="Shape" d="m27.184 42.75-3.651-1.135c-.5379869-.1790472-.9762037-.5755463-1.208-1.093-2.8149018 2.1349981-6.3936895 2.9970683-9.872 2.378-.6183493-.1093462-1.2450571-.1645554-1.873-.165-2.73467137-.0038277-5.36616435 1.0437571-7.35 2.926l2.85 2.85 3.213-3.213c.39237889-.3789722 1.0160848-.3735524 1.4018186.0121814s.3911536 1.0094397.0121814 1.4018186l-3.213 3.208 2.806 2.806 6.97-7.411c.3783151-.4026156 1.0113844-.4223151 1.414-.044s.4223151 1.0113844.044 1.414l-7.013 7.456 1.651 1.652c.2769119.2608453.7090881.2608453.986 0l12.848-12.851z"/><path id="Shape" d="m15.278 31.308c-.0614067-.1750067-.0977664-.3578152-.108-.543l-.176-3.905-14.787 14.787c-.27008376.2727913-.27008376.7122087 0 .985l1.609 1.61c2.35867238-2.2577499 5.49891919-3.5161418 8.764-3.512.7457246.0021733 1.4898523.0690913 2.224.2 3.3543436.6004393 6.7934829-.4403724 9.252-2.8l-.175-3.88-5.12-1.593-6.054 6.054c-.3923789.3789722-1.01608478.3735524-1.40181858-.0121814-.38573379-.3857338-.39115363-1.0094397-.01218142-1.4018186z"/><path id="Shape" d="m55.793 13.368-1.628-1.628-1.292 1.312c-2.9340073 2.975725-7.1470534 4.3126001-11.26 3.573-.6183493-.1093462-1.2450571-.1645554-1.873-.165-2.6180865-.0032901-5.1456543.9578977-7.1 2.7l3.6 3.432 1.66-1.659c.3923789-.3789722 1.0160848-.3735524 1.4018186.0121814s.3911536 1.0094397.0121814 1.4018186l-1.628 1.628 2.207 2.1c.3278121-.2119164.709656-.325081 1.1-.326.5421828.0047122 1.0635294.2094761 1.464.575l.716.647 12.62-12.618c.2700838-.2727913.2700838-.7122087 0-.985z"/><path id="Shape" d="m55.207 44.667c.5442844-.6178684.7957472-1.4404068.69-2.257-.1093697-.9318285-.5595982-1.7902547-1.264-2.41l-13.515-12.19c-.0378235-.0380511-.0893492-.0593099-.143-.059l-.331.367c-.008.01-.011.021-.019.03s-.016.01-.022.016l-11.591 12.857.092.866v.01l.3 2.792c.0095551.0486586.0357118.0924886.074.124l11.472 10.355c1.395 1.26 4.171.679 5.381-.663zm-13.343 7.181-4.564-4.123c-.4099464-.3698142-.4426241-1.0018823-.073-1.412l8.22-9.11c.3698142-.4099464 1.0018823-.4426241 1.412-.073l4.57 4.123c.4096506.3700995.4418799 1.0021511.072 1.412l-8.22 9.11c-.177752.1983755-.4273015.3176387-.6933105.3313427-.266009.0137041-.5264931-.0792835-.7236895-.2583427z"/><path id="Shape" d="m23.879 34.153.2 4.362v.041l.052 1.153 2.933.909c.064339-.3401323.2186981-.6567929.447-.917l10.343-11.465c.362869-.4023043.3393686-1.0204099-.053-1.394l-2.208-2.1c-.015-.013-.035-.018-.05-.033s-.015-.027-.026-.039l-5.039-4.8-20.149-19.182c-.39798772-.37821916-1.02648346-.36482792-1.408.03l-5.621 5.816c-.19047272.19760826-.29135401.4648171-.279.739l.208 4.69c.01820836.4207769.29810518.7850426.7.911l4.624 1.43c.80797747.2465631 1.37391018.9741909 1.414 1.818l.21 4.851c.0177965.4211501.2977719.7859181.7.912l4.633 1.43c.35164.1223618.6629486.3388942.9.626.015.013.034.018.049.032s.024.042.04.061.057.05.078.082.035.08.057.121c.0204193.0374937.0384551.0762372.054.116.1257431.2445473.2012279.5118044.222.786l.251 5.546 5.3 1.65c.8113351.2425675 1.3802922.9720203 1.418 1.818zm-11.979-27.716c-.3806577.39955299-1.0130274.41521678-1.413.035l-1.481-1.406c-.38647844-.3833526-.39533199-1.00541857-.01992-1.39961477.37541198-.3941962.99716916-.41570126 1.39892-.04838523l1.477 1.4c.1941195.18261634.3073102.43516704.3144448.70158816s-.0923772.52466786-.2764448.71741184zm1.54 2.846c-.3781455-.38459277-.3831631-.99977522-.0113413-1.39048498.3718219-.39070976.9864983-.41615572 1.3893413-.05751502l8.859 8.435c.267251.2443445.3815269.6140768.2987556.9666052-.0827713.3525283-.3496558.6327668-.6977263.7326379-.3480706.0998712-.7229377.0037691-.9800293-.2512431z"/></symbol><symbol id="repairing" viewBox="0 0 60 60"><title>repairing</title><path d="m54.71 53.46-16.17-16.17c.91-3.39-.04-6.96-2.54-9.45-2.46-2.45-5.94-3.42-9.32-2.58-.35.08-.62.35-.72.7s0 .72.25.97l4.85 4.86-.87 4.13-4.14.88-4.85-4.85c-.25-.26-.62-.36-.97-.26-.35.09-.62.37-.7.72-.85 3.38.11 6.87 2.57 9.33 2.5 2.5 6.08 3.45 9.46 2.54l10.59 10.59c.19.19.44.29.71.29h11.14c.41 0 .77-.24.93-.61.15-.38.07-.82-.22-1.09z"/><path d="m6.08 7.46c-.55 0-1 .45-1 1l-.08 12.7c0 .55.45 1 1 1.01l6.9.04c-.01-.16-.05-.31-.04-.47l.08-13.77c0-.16.03-.31.05-.47l-6.9-.04z"/><path d="m21.39 24.95c1.56 0 2.85-1.16 3.1-2.65l10.83.03c.21 1.53 1.51 2.72 3.1 2.73l3.38.02h.02c1.73 0 3.14-1.4 3.15-3.14l.08-13.77c.01-1.74-1.39-3.16-3.13-3.17l-3.38-.02c-.85-.01-1.64.32-2.24.91-.48.48-.78 1.08-.88 1.74l-10.83-.04c-.21-1.53-1.51-2.71-3.1-2.72l-3.38-.02c-.87-.01-1.63.32-2.23.91s-.93 1.38-.94 2.22l-.08 13.77c-.01 1.74 1.39 3.17 3.13 3.18l3.38.02z"/><path d="m53.91 7.75-6.9-.04c.01.16.04.31.04.46l-.08 13.77c0 .16-.04.31-.05.47l6.91.04c.55 0 1-.44 1-.99l.08-12.7c0-.27-.11-.52-.29-.71-.19-.19-.44-.3-.71-.3z"/><path d="m10.86 32.44h.02c.9 0 1.71-.36 2.3-.95s.96-1.39.96-2.29c.01-1.44-1.83-4.35-2.39-5.21-.19-.28-.5-.45-.83-.45h-.01c-.33 0-.64.16-.83.44-.57.85-2.45 3.74-2.45 5.18-.01 1.8 1.44 3.27 3.23 3.28z"/></symbol><symbol id="chef" viewBox="0 0 512 512"><title>chef</title><g> <g> <rect x="90.289" y="436.498" width="331.51" height="60.283"/> </g> </g><g> <g> <path d="M393.342,74.155c-10.829,0-21.442,1.437-31.702,4.28c-8.736-16.557-21.274-30.808-36.811-41.72 c-20.022-14.062-43.58-21.495-68.126-21.495c-24.656,0-48.301,7.494-68.378,21.672c-15.537,10.973-28.049,25.278-36.741,41.886 c-10.635-3.073-21.659-4.624-32.928-4.624C53.229,74.155,0,127.385,0,192.812c0,55.016,37.981,102.405,90.285,115.238v98.389 h331.511v-98.41C474.052,295.163,512,247.78,512,192.811C512,127.385,458.771,74.155,393.342,74.155z"/> </g> </g></symbol><symbol id="metalworking" viewBox="0 0 64 64"><title>metalworking</title><path d="m13 57h38v4h-38z"/><path d="m3 41.221a1.225 1.225 0 0 0 .268.763 10.649 10.649 0 0 0 8.356 4.016h.376v-6h-7.779a1.223 1.223 0 0 0 -1.221 1.221z"/><path d="m48 43h2v-4h-36v9h8v2h-4.109a6.98 6.98 0 0 1 2.109 5h23.11a6.979 6.979 0 0 1 0-10h-2.11v-2z"/><path d="m17.82 34-.6 3h15.56l-.601-3.001z"/><path d="m13.5 18.55h2v9.899h-2z" transform="matrix(.707 -.707 .707 .707 -12.37 17.136)"/><path d="m8 16.586h2v2.828h-2z" transform="matrix(.707 -.707 .707 .707 -10.092 11.636)"/><path d="m10 25.877h2v8.246h-2z" transform="matrix(.243 -.97 .97 .243 -20.772 33.395)"/><path d="m29 24h5v2h-5z" transform="matrix(.6 -.8 .8 .6 -7.402 35.192)"/><path d="m6 20h2v5h-2z" transform="matrix(.6 -.8 .8 .6 -15.2 14.6)"/><path d="m53.171 7.929h3.657v12.142h-3.657z" transform="matrix(.707 -.707 .707 .707 6.21 42.991)"/><path d="m23.646 22.232a2.684 2.684 0 0 0 3.708 0l1.232-1.232-7.586-7.586-1.232 1.232a2.622 2.622 0 0 0 0 3.708z"/><path d="m55.257 30.671-4.151-4.15a22.338 22.338 0 0 0 3.47-7.531l-5.313-5.313a7.831 7.831 0 0 1 -4.342 1.323h-2.57l-1.536 1.229-3.03-3.014 2.215-2.215-2.5-2.5-.707-.707 3.762-3.762a5.039 5.039 0 0 0 -6.616.444l-9.525 9.525 3.086 3.086 1.793-1.793.707.707 2 2 .5.5 1.708-1.708 3.765 3.766a5.561 5.561 0 0 1 -1.384 3.409 2.336 2.336 0 0 0 .181 3.284l5.6 5.061a2.743 2.743 0 0 0 3.732-.156l1.676-1.789 3.89 3.89a2.536 2.536 0 1 0 3.586-3.586z"/></symbol><symbol id="knitting" viewBox="0 0 512 512"><title>knitting</title><path d="m476.437 313.18h-32.069c-6.838 0-12.404 5.531-12.472 12.353h-46.677c.679-6.078 1.029-12.224 1.029-18.355 0-51.225-24.033-99.323-64.635-130.178l43.164-51.051c2.321 1.922 5.139 2.867 7.948 2.867 3.547 0 7.074-1.5 9.539-4.415l20.706-24.489c12.659-14.975 10.777-37.457-4.196-50.118-7.253-6.132-16.463-9.074-25.928-8.281-9.466.793-18.057 5.224-24.19 12.477l-20.706 24.487c-2.152 2.545-3.184 5.776-2.906 9.098.275 3.279 1.799 6.256 4.286 8.402l-49.144 58.124c-18.319-6.874-37.599-10.36-57.375-10.36-90.12 0-163.437 73.318-163.437 163.437 0 8.374.645 16.747 1.908 24.985l-52.036 6.17c-5.358.636-9.247 5.014-9.246 10.41 0 5.396 3.89 9.773 9.247 10.408l61.213 7.258c4.112 10.568 9.315 20.699 15.544 30.207l-21.074 31.896c-2.974 4.503-2.141 10.299 1.979 13.783 4.113 3.477 9.968 3.344 13.918-.342l23.647-22.068c30.792 32.308 73.564 50.729 118.338 50.729 33.159 0 65.086-9.876 92.331-28.56 25.608-17.563 45.496-41.755 57.738-70.103h59.017c.068 6.823 5.633 12.353 12.472 12.353h32.069c19.609 0 35.563-15.954 35.563-35.563s-15.956-35.561-35.565-35.561zm-151.576 43.798c2.086-4.366 6.927-15.384 7.376-16.471h99.653v16.471zm-18.032-136.072c0 93.029-49.62 180.021-129.626 227.537-7.957-2.571-15.681-5.807-23.087-9.673 32.867-16.877 60.909-40.691 82.659-69.155.186-.196.364-.4.529-.617 10.237-13.656 19.57-28.355 26.497-43.807 15.104-32.034 23.375-67.525 23.375-104.286 0-1.053-.007-2.102-.02-3.152l18.497-21.876c.778 8.306 1.176 16.678 1.176 25.029zm-101.23 70.112-29.183 34.515h-21.57l36.406-43.057c4.882 2.673 9.677 5.527 14.347 8.542zm12.377 8.554c10.348 7.693 20.086 16.285 29.109 25.713-.042.083-.086.165-.129.248h-50.932zm122.786-193.922 12.577 10.635-93.388 110.451c-4.544-3.167-9.155-6.222-13.847-9.134zm19.329-41.993c3.55-4.199 8.524-6.765 14.004-7.224 5.487-.456 10.811 1.244 15.011 4.795 8.669 7.33 9.759 20.346 2.429 29.016l-19.095 22.584-31.443-26.588zm-285.743 243.521c0-81.864 66.6-148.464 148.463-148.464 16.152 0 31.931 2.564 47.037 7.613l-36.847 43.58c-17.1-9.491-35.075-17.357-53.813-23.527-3.926-1.29-8.16.842-9.453 4.77s.843 8.16 4.77 9.453c34.85 11.473 66.931 29.122 95.429 52.442-1.028 7.271-2.395 14.457-4.099 21.535-37.891-33.439-83.815-55.88-133.413-65.094-4.066-.752-7.973 1.928-8.729 5.993-.755 4.065 1.928 7.973 5.993 8.729 49.308 9.16 94.78 32.147 131.638 66.504-2.18 6.823-4.679 13.523-7.472 20.085-30.838-30.754-69.032-52.642-111.143-63.566-4.004-1.038-8.088 1.365-9.127 5.368-1.038 4.002 1.365 8.088 5.367 9.127 13.316 3.454 26.214 8.079 38.574 13.794l-42.286 50.013h-17.592c-.294 0-.589.018-.882.052l-40.601 4.814c-1.198-7.65-1.814-15.433-1.814-23.221zm43.741 33.329h120.485c-3.441 5.645-7.121 11.141-11.035 16.471h-109.451l-69.456-8.236zm-30.535 27.929 15.828 1.877-8.298 12.559c-2.775-4.673-5.287-9.493-7.53-14.436zm32.693 3.516h13.641l-35.582 33.207zm-4.827 37.717 40.415-37.718h59.728c-20.882 23.981-46.856 43.785-76.749 57.62-8.406-5.766-16.252-12.424-23.394-19.902zm81.949 43.76c35.145-23.479 64.731-54.768 86.17-91.3 25.032-42.657 38.264-91.491 38.264-141.223 0-8.467-.393-16.952-1.152-25.381 31.965 28.037 50.624 68.634 50.624 111.653 0 6.137-.382 12.289-1.129 18.355h-18.666c-2.826-4.806-5.795-9.577-8.866-14.213-.002-.003-.004-.005-.005-.007 3.171-10.548 5.81-21.292 7.86-32.206.763-4.063-1.913-7.976-5.977-8.74-4.056-.761-7.976 1.912-8.74 5.977-3.562 18.969-8.96 37.413-16.022 55.124-3.977 9.979-8.518 19.78-13.551 29.261-19.343 36.438-46.23 68.805-79.292 94.836-1.357.036-2.713.076-4.076.076-8.591 0-17.098-.759-25.442-2.212zm99.259-49.104c3.244 8.757 5.952 17.731 8.1 26.81-15.358 10.142-32.619 17.405-50.997 21.274 15.997-14.603 30.353-30.725 42.897-48.084zm21.119 17.144c-2.895-10.94-6.556-21.701-10.934-32.111 3.632-5.691 7.084-11.494 10.339-17.406h3.42c5.166 11.006 9.587 22.425 13.179 34.033-4.954 5.579-10.308 10.748-16.004 15.484zm27.103-29.627c-2.355-6.724-4.967-13.368-7.83-19.89h19.405c-3.38 6.988-7.251 13.632-11.575 19.89zm131.587-22.511h-29.573v-41.178h29.573c11.353 0 20.589 9.236 20.589 20.589s-9.236 20.589-20.589 20.589z"/></symbol><symbol id="needle-with-thread-to-sew-clothes" viewBox="0 0 274.227 274.228"><title>needle-with-thread-to-sew-clothes</title><path d="M262.353,170.603c-0.792-2.288-19.578-56.177-45.5-69.878c-1.554-0.818-3.18-1.652-4.847-2.501 c7.783-26.139,10.299-47.996,5.188-66.953c-4.981-18.491-22.059-32.213-38.856-31.219c-14.794,0.865-25.295,12.718-28.097,31.701 c-0.88,5.965-0.834,11.387-0.171,16.43c-3.469,4.836-5.841,9.036-6.543,10.325L13.143,266.149 c-0.997,1.579-2.231,3.547-0.955,5.872l1.229,2.206h2.509c2.201,0,3.379-1.476,4.513-2.895L170.42,83.093 c9.569,8.114,21.034,14.245,31.375,19.49c-4.635,14.333-10.776,30.049-18.046,47.328c-19.957,47.483-10.657,86.687,3.401,95.64 c0.705,0.451,1.492,0.663,2.279,0.663c1.402,0,2.77-0.694,3.583-1.968c1.248-1.973,0.673-4.604-1.305-5.852 c-9.896-6.302-18.662-41.109-0.135-85.19c7.13-16.953,13.204-32.467,17.875-46.753c1.186,0.605,2.34,1.201,3.453,1.786 c22.96,12.138,41.26,64.612,41.436,65.136c0.767,2.217,3.18,3.392,5.396,2.631C261.934,175.227,263.115,172.814,262.353,170.603z M153.986,80.063l-8.353,6.902l3.299-10.325c0.973-3.024,2.791-8.383,5.203-14.131c1.885,4.085,4.272,7.819,7.048,11.236 C157.973,76.713,155.27,79.002,153.986,80.063z M167.345,67.781c-3.671-4.722-6.426-10.077-7.954-16.181 c4.106-7.322,9.021-13.241,14.209-13.241c1.435,0,2.817,0.409,4.096,1.222c2.123,1.341,3.319,3.365,3.48,5.851 C181.564,51.579,174.481,60.464,167.345,67.781z M204.333,94.345c-9.823-5.007-20.164-10.651-28.589-17.891 c5.634-7.28,16.669-23.229,15.198-34.932c-0.513-4.096-2.517-7.482-5.789-9.792c-2.714-1.9-5.686-2.874-8.839-2.874 c-6.551,0-12.868,4.339-18.201,9.704c0.083-1.802,0.232-3.646,0.518-5.571c2.2-14.934,9.569-23.855,20.205-24.477 c0.378-0.021,0.771-0.037,1.16-0.037c11.143,0,24.72,9.088,29.013,24.995C213.57,50.414,211.343,70.354,204.333,94.345z"/></symbol><symbol id="sewing-machine" viewBox="0 0 43.3492 43.3492"><title>sewing-machine</title><path id="_334743648" d="m1.137 33.268h36.28v4.031h-36.28z"/><path id="_334743600" d="m4.6436 10.9894c0 .2992.2426.5418.5419.5418.2992 0 .5418-.2426.5418-.5418v-1.8975c0-.2992-.2426-.5418-.5418-.5418-.2993 0-.5419.2426-.5419.5418z" fill-rule="nonzero"/><path id="_334738680" d="m3.932 7.088h2.507v2.304h-2.507z"/><g fill-rule="nonzero"><path id="_334738656" d="m3.5126 15.9334c.2992 0 .5418-.2426.5418-.5419 0-.2992-.2426-.5418-.5418-.5418h-2.7182c-.2992 0-.5418.2426-.5418.5418 0 .2993.2426.5419.5418.5419z"/><path id="_208436664" d="m5.9519 27.5923c0-.2992-.2426-.5418-.5419-.5418-.2992 0-.5419.2426-.5419.5418v1.4126 3.2355c0 .2992.2427.5418.5419.5418.2993 0 .5419-.2426.5419-.5418v-3.2355z"/><path id="_208436568" d="m5.41 30.4582c.2993 0 .5419-.2426.5419-.5418 0-.2993-.2426-.5419-.5419-.5419h-1.7668c-.2992 0-.5419.2426-.5419.5419 0 .2992.2427.5418.5419.5418z"/></g><path id="_208436328" d="m1.585 28.638h2.437v2.557h-2.437z"/><path id="_208436160" d="m28.6607 10.9332c0 .2993.2426.5419.5418.5419.2993 0 .5419-.2426.5419-.5419v-4.3416c0-.2992-.2426-.5419-.5419-.5419-.2992 0-.5418.2427-.5418.5419z" fill-rule="nonzero"/><path id="_208436760" d="m41.2741 11.8036v9.0144 1.1114c0 .5706.4669 1.0375 1.0376 1.0375s1.0376-.4669 1.0376-1.0375v-11.2371c0-.5707-.4669-1.0376-1.0376-1.0376s-1.0376.4669-1.0376 1.0376z"/><path id="_208436424" d="m38.7773 14.0553v4.511 1.2236l1.7743 1.0281v-9.0144l-1.7743 1.0282z"/><path id="_208436352" d="m35.2993 14.0553c.4556 1.1506.6085 2.6419.3613 4.511h2.3942v-4.511z"/><path id="_208435920" d="m3.0275 22.6864c-.0527-.752-.1015-1.5478-.1418-2.357h-1.71v-.5038h-1.1757v3.3646h1.1757v-.5038z"/><path id="_208435872" d="m7.4019 14.8024c.6689 0 1.2112.5423 1.2112 1.2113s-.5423 1.2112-1.2112 1.2112c-.669 0-1.2113-.5422-1.2113-1.2112s.5423-1.2113 1.2113-1.2113zm2.6278 4.1951c6.8894-1.7862 13.1382-.4067 14.4714-.0695 4.6985 1.1877-.0009 9.2265-.155 13.6179h10.4278c-.4557-4.7692-1.0594-6.8952-.0057-12.9486.0696-.3557.1261-.6993.1699-1.031.2472-1.8691.0944-3.3604-.3612-4.511-.8856-2.2365-2.9151-3.186-5.3744-3.1221-1.9753.0513-4.228.7565-6.3879 1.9736-6.5836 3.7098-15.3134-1.8734-16.6393-1.9317-.2102-.0092-.6046.0004-.9898.0143-.4587.0165-.9043.0388-1.0105.0418-.4228.5637-.6121 2.149-.6624 4.131-.0019.0759-.0037.1523-.0052.2293-.0302 1.5228.017 3.2592.1008 4.9379.0403.8092.0891 1.605.1418 2.357.1554 2.2184.3444 4.056.4489 4.7332.3607.1664.8033.1975 1.2111.1727.6504-.0394 1.2124-.2207 1.2124-.2207.2948-2.9716-.1461-7.4493 3.4073-8.3741zm19.1728-.8201c-1.195 0-2.1637-.9687-2.1637-2.1637s.9687-2.1637 2.1637-2.1637 2.1637.9687 2.1637 2.1637-.9687 2.1637-2.1637 2.1637z"/></symbol><symbol id="sewing" viewBox="0 0 300 300"><title>sewing</title><path d="m262.55 117.278-75.961-75.961c-6.46-6.459-16.969-6.459-23.427 0-3.265 3.265-5.028 7.782-4.839 12.396l.469 11.366-89.846 89.846-11.366-.469c-4.61-.178-9.132 1.573-12.396 4.839-6.459 6.459-6.459 16.968 0 23.427l75.961 75.961c3.229 3.229 7.471 4.845 11.713 4.845s8.485-1.615 11.715-4.845c3.264-3.266 5.027-7.784 4.838-12.396l-.469-11.367 3.169-3.169c4.417 3.096 11.973 7.252 20.732 7.252.742 0 1.494-.03 2.252-.093 8.515-.706 16.042-5.346 22.374-13.787 16.734-22.313 27.337-18.208 27.445-18.161l-.114-.054 3.578-7.156c-1.63-.812-16.512-7.159-37.31 20.57-4.889 6.519-10.471 10.089-16.59 10.611-6.576.558-12.697-2.421-16.601-4.949l80.91-80.909 11.366.469c.227.009.451.014.677.014 4.376 0 8.615-1.747 11.72-4.853 6.459-6.46 6.459-16.968 0-23.427zm-97.744 90.463c-8.727-10.797-17.859-24.083-26.128-36.946 3.358 2.071 6.696 4.087 9.949 6.02 6.422 8.806 13.728 17.468 21.904 25.202zm-40.716-19.201c15.061 11.958 28.375 21.41 34.353 25.565l-6.766 6.766c-10.96-10.901-20.089-21.965-27.587-32.331zm-34.152-43.294c.52 1.229 1.134 2.635 1.845 4.202-1.012-1.02-2.008-2.04-2.986-3.061zm26.597-26.597c3.333 8.205 10.53 24.541 21.453 42.278-3.098-1.947-6.176-3.923-9.18-5.904-8.602-14.096-15.268-25.905-17.941-30.706zm28.798 5.923c2.866 4.893 6.091 10.223 9.622 15.796-14.843-12.441-26.496-23.841-31.384-28.753l.704-.704c3.774 2.54 11.251 7.503 21.058 13.661zm-15.293-19.427 2.912-2.912c1.02 1.96 2.355 4.485 3.975 7.462-2.793-1.824-5.118-3.365-6.887-4.55zm-17.319 38.584c-4.544-3.455-8.481-6.766-11.479-9.786l3.742-3.742c1.767 3.16 4.427 7.854 7.737 13.528zm-15.973-3c6.375 6.102 15.791 13.058 26.097 19.936 6.553 10.695 14.161 22.588 22.018 33.776-10.322-7.707-23.118-17.707-35.458-28.519-6.56-11.328-10.638-20.351-12.657-25.193zm71.259 47.267c4.344 2.436 8.006 4.444 10.66 5.884l-2.479 2.479c-2.831-2.671-5.558-5.471-8.181-8.363zm-13.785-17.191c-10.747-15.018-18.951-30.459-24.396-41.961 9.908 9.278 24.044 21.746 39.81 33.31 5.597 7.781 11.615 15.543 17.93 22.828l-2.993 2.993c-4.901-2.648-16.783-9.149-30.351-17.17zm36.368 5.388c1.208.726 2.419 1.436 3.631 2.133l-.984.984c-.888-1.03-1.77-2.07-2.647-3.117zm-15.263-19.824c-5.508-7.713-10.591-15.423-15.121-22.663 8.716 5.231 18.378 10.811 28.408 16.228 4.483 6.383 9.453 12.784 14.955 19.046l-3.48 3.48c-8.376-4.692-16.756-10.248-24.762-16.091zm29.868 2.164c1.977.98 3.956 1.944 5.933 2.887l-1.888 1.888c-1.382-1.582-2.731-3.174-4.045-4.775zm-11.047-14.705c-3.426-4.981-6.554-9.948-9.397-14.812 10.808 7.285 23.145 14.96 36.561 22.219l-4.175 4.175c-7.683-3.598-15.429-7.533-22.989-11.582zm-14.853-8.215c-10.335-5.89-19.933-11.703-28.053-16.777-6.118-10.534-10.432-18.782-12.352-22.541l1.318-1.318c2.358 2.102 13.17 11.575 29.711 23.641 2.748 5.453 5.863 11.16 9.376 16.995zm-33.42-46.303 7.121-7.121c.788.808 1.729 1.761 2.817 2.845 1.675 4.966 3.957 11.156 6.949 18.177-8.981-6.994-14.902-12.142-16.887-13.901zm14.963-14.964 1.109-1.109 42.958 42.958c-18.712-13.475-33.861-27.467-42.098-35.537-.899-2.716-1.549-4.86-1.969-6.312zm-77.705 77.706c6.105 6.36 12.876 12.724 19.812 18.843 9.268 15.858 23.211 35.877 43.075 55.632l-.234.234-68.682-68.681zm55.782 100.975c-3.339 3.338-8.773 3.34-12.114 0l-75.961-75.961c-3.34-3.34-3.34-8.774 0-12.114 1.605-1.605 3.798-2.509 6.061-2.509.116 0 .233.003.35.008l13.467.556 70.144 70.144.556 13.467c.096 2.383-.816 4.72-2.503 6.409zm88.309-107.703c-19.737-10.522-37.191-22.033-50.88-31.927-2.781-5.618-5.157-10.916-7.16-15.73 14.477 13.021 36.011 30.409 60.442 43.619l.13-.241.874.874zm29.669-10.276c-1.688 1.688-4.033 2.602-6.41 2.501l-13.467-.556-70.144-70.145-.556-13.466c-.099-2.386.813-4.722 2.501-6.41 3.338-3.34 8.772-3.342 12.114 0l75.961 75.961c3.341 3.341 3.341 8.775.001 12.115z"/><path d="m56.606 57.402c2.209 0 4-1.791 4-4v-12c0-2.209-1.791-4-4-4s-4 1.791-4 4v12c0 2.209 1.791 4 4 4z"/><path d="m56.606 65.402c-2.209 0-4 1.791-4 4v12c0 2.209 1.791 4 4 4s4-1.791 4-4v-12c0-2.209-1.791-4-4-4z"/><path d="m52.606 61.402c0-2.209-1.791-4-4-4h-12c-2.209 0-4 1.791-4 4s1.791 4 4 4h12c2.209 0 4-1.791 4-4z"/><path d="m64.606 65.402h12c2.209 0 4-1.791 4-4s-1.791-4-4-4h-12c-2.209 0-4 1.791-4 4s1.791 4 4 4z"/><path d="m230.606 229.402c-7.72 0-14 6.28-14 14s6.28 14 14 14 14-6.28 14-14-6.28-14-14-14zm0 20c-3.309 0-6-2.691-6-6s2.691-6 6-6 6 2.691 6 6-2.691 6-6 6z"/><circle cx="116.607" cy="49.402" r="4"/><circle cx="260.607" cy="185.402" r="4"/><circle cx="40.607" cy="121.402" r="4"/></symbol><symbol id="handcraft" viewBox="0 0 512 512"><title>handcraft</title><path d="m126.016 283.128c-27.285 0-49.483 22.198-49.483 49.484 0 27.285 22.198 49.483 49.483 49.483 27.286 0 49.484-22.198 49.484-49.483s-22.198-49.484-49.484-49.484zm0 83.968c-19.015 0-34.483-15.469-34.483-34.483s15.469-34.484 34.483-34.484 34.484 15.47 34.484 34.484-15.47 34.483-34.484 34.483z"/><path d="m126.016 308.128c-13.5 0-24.483 10.983-24.483 24.484 0 13.5 10.983 24.483 24.483 24.483 13.501 0 24.484-10.983 24.484-24.483s-10.983-24.484-24.484-24.484zm0 33.968c-5.229 0-9.483-4.254-9.483-9.483s4.254-9.484 9.483-9.484 9.484 4.255 9.484 9.484-4.255 9.483-9.484 9.483z"/><path d="m426.218 402.025c-9.356 5.401-16.053 14.137-18.855 24.596s-1.37 21.371 4.031 30.728c5.402 9.356 14.137 16.053 24.596 18.855 3.498.938 7.046 1.401 10.57 1.401 7.014 0 13.932-1.837 20.158-5.433 19.34-11.165 25.99-35.983 14.824-55.324-11.167-19.338-35.983-25.991-55.324-14.823zm44.866 41.67c-1.766 6.589-5.979 12.089-11.866 15.487-12.175 7.029-27.803 2.844-34.834-9.334-3.398-5.887-4.298-12.757-2.532-19.346s5.979-12.089 11.866-15.487c4.006-2.312 8.384-3.411 12.707-3.411 8.819 0 17.409 4.573 22.127 12.744 3.399 5.887 4.298 12.758 2.532 19.347z"/><path d="m290.658 402.025c-9.355-5.403-20.271-6.835-30.728-4.031-10.459 2.802-19.194 9.498-24.596 18.854s-6.834 20.27-4.031 30.729c2.802 10.459 9.498 19.194 18.854 24.596 6.228 3.596 13.145 5.433 20.158 5.433 3.524 0 7.073-.464 10.57-1.401 10.459-2.803 19.194-9.499 24.596-18.855 5.402-9.355 6.834-20.269 4.031-30.728s-9.498-19.196-18.854-24.597zm1.834 47.823c-3.398 5.887-8.898 10.102-15.487 11.866-6.589 1.768-13.46.866-19.347-2.532s-10.101-8.898-11.866-15.487-.865-13.46 2.533-19.347 8.898-10.101 15.487-11.866c2.206-.591 4.442-.883 6.663-.883 4.414 0 8.767 1.155 12.683 3.416 5.887 3.398 10.102 8.898 11.866 15.487 1.766 6.589.866 13.459-2.532 19.346z"/><path d="m503.193 404.348c-15.286-26.476-46.373-38.809-75.608-29.981-5.107 1.538-10.474-.1-13.673-4.176v.001l-16.74-21.327c-.036-.046-.079-.083-.115-.128l23.009-39.853c2.071-3.587.842-8.174-2.745-10.245-3.59-2.07-8.175-.843-10.245 2.745l-39.183 67.866-32.043-18.5 97.537-168.939c13.5 21.615 14.27 49.286 1.242 71.849l-10.022 17.359c-2.071 3.587-.842 8.174 2.745 10.245 3.587 2.068 8.174.843 10.245-2.745l10.022-17.359c18.055-31.27 14.299-70.614-9.347-97.904-1.589-1.834-3.97-2.793-6.381-2.555-2.415.23-4.569 1.615-5.782 3.716l-54.99 95.244-7.469-7.468 16.317-16.316c2.382-2.383 3.694-5.551 3.694-8.92s-1.312-6.537-3.694-8.92l-16.452-16.451 16.317-16.316c4.918-4.918 4.918-12.921 0-17.839l-16.452-16.452 16.32-16.319c4.915-4.917 4.915-12.918-.001-17.837l-16.114-16.114 16.654-16.654c4.918-4.918 4.918-12.921 0-17.839l-30.948-30.948c-1.551-1.55-3.619-2.28-5.642-2.188-2.04-.092-4.091.639-5.641 2.188l-19.73 19.729-15.979-15.979c-4.92-4.918-12.92-4.918-17.84 0l-16.451 16.452-16.316-16.317c-1.071-1.07-2.292-1.895-3.59-2.498v-14.597c0-6.893-5.607-12.5-12.5-12.5h-183.135c-6.893 0-12.5 5.607-12.5 12.5v58.538h-27.467c-6.893 0-12.5 5.607-12.5 12.5v305c0 6.893 5.607 12.5 12.5 12.5h19.5v76.081c0 4.122 2.319 7.767 6.054 9.513 1.441.673 2.964 1.004 4.474 1.004 2.4 0 4.767-.838 6.708-2.461l32.987-27.583c1.705-1.425 2.689-3.532 2.689-5.754v-44.242c12.424 6.065 26.373 9.474 41.104 9.474 19.184 0 37.307-5.854 52.439-16.032h32.055c-6.131 13.78-7.314 29.112-3.258 43.867 4.681 17.023 15.747 31.154 31.16 39.788 9.917 5.556 20.732 8.191 31.459 8.19 22.909-.002 45.391-12.032 57.694-33.342l30.873-53.474 30.873 53.474c12.305 21.312 34.784 33.342 57.695 33.342 10.725 0 21.544-2.636 31.458-8.19 15.414-8.634 26.48-22.765 31.16-39.788 4.681-17.026 2.397-34.824-6.431-50.115zm-174.777-70.723-46.168-79.966c-13.026-22.562-12.257-50.233 1.242-71.849l66.288 114.814zm-69.326-265.859c4.918 4.916 12.919 4.915 17.837-.001l16.452-16.453 15.979 15.979c2.383 2.382 5.551 3.694 8.92 3.694 3.37 0 6.538-1.312 8.918-3.694l16.453-16.452 24.295 24.296-16.654 16.655c-4.918 4.918-4.918 12.921 0 17.839l16.114 16.114-16.317 16.316c-2.382 2.383-3.694 5.551-3.694 8.92 0 3.368 1.312 6.536 3.694 8.919l16.452 16.451-16.316 16.316c-4.918 4.919-4.918 12.921 0 17.84l16.452 16.451-16.317 16.316c-4.918 4.919-4.918 12.921.001 17.84l11.997 11.996-4.917 8.516-28.439-49.254v-139.274c0-6.893-5.607-12.5-12.5-12.5h-69.398v-23.82zm-204.123-43.208h38.145l-38.145 38.145zm0 59.358 59.358-59.358h28.149l-87.508 87.507v-28.149zm0 49.363 108.721-108.721h31.112l-139.833 139.833zm0 52.327 161.048-161.048h17.087v17.087l-99.365 99.365c-2.929 2.93-2.929 7.678 0 10.607 1.465 1.464 3.385 2.196 5.304 2.196s3.839-.732 5.304-2.196l88.758-88.758v31.111l-108.723 108.723h-31.111l26.326-26.326c2.929-2.93 2.929-7.678 0-10.607-2.93-2.928-7.678-2.928-10.607 0l-36.934 36.934h-17.087zm118.776 17.087h-28.149l87.508-87.508v28.149zm59.359-38.145v38.144h-38.145zm-163.19 293.343-22.912 19.158v-93.544c6.121 9.47 13.894 17.776 22.912 24.503zm-22.912-125.278c0-43.57 35.446-79.017 79.016-79.017 19.095 0 37.524 6.902 51.895 19.436 14.235 12.415 23.567 29.488 26.277 48.073.599 4.1 4.418 6.93 8.504 6.34 4.099-.598 6.938-4.405 6.34-8.504-3.228-22.127-14.329-42.446-31.262-57.213-17.103-14.917-39.034-23.132-61.754-23.132-51.841 0-94.016 42.176-94.016 94.017v62.983h-17v-300h24.967v109.597c0 6.893 5.607 12.5 12.5 12.5h183.135c6.893 0 12.5-5.607 12.5-12.5v-109.597h66.898v110.793l-24.233-41.972c-1.213-2.101-3.367-3.485-5.782-3.716-2.408-.236-4.792.722-6.381 2.555-23.645 27.289-27.4 66.634-9.347 97.904l45.743 79.228v14.47l-12.036 15.333c-3.2 4.076-8.565 5.712-13.673 4.175-25.783-7.783-53.01.901-69.567 21.229h-23.948c9.758-10.785 17.112-23.906 21.052-38.635 1.07-4.002-1.306-8.113-5.307-9.184-4-1.071-8.113 1.307-9.184 5.307-9.221 34.47-40.606 58.544-76.323 58.544-43.568.001-79.014-35.445-79.014-79.014zm267.575 128.987c-13.981 24.218-44.856 32.995-68.832 19.565-11.886-6.658-20.419-17.554-24.027-30.678-3.609-13.128-1.849-26.851 4.958-38.64 9.239-16.001 25.957-25.301 43.604-25.301 4.867 0 9.809.709 14.68 2.179 11.062 3.339 22.764-.3 29.806-9.272l12.725-16.21 32.904 18.997zm180.586-11.112c-3.607 13.124-12.141 24.02-24.026 30.678-23.973 13.429-54.852 4.652-68.833-19.565l-35.203-60.974 21.229-36.769 1.061-.613 12.725 16.21v.001c7.043 8.971 18.745 12.611 29.806 9.271 22.533-6.801 46.497 2.708 58.284 23.122 6.805 11.788 8.566 25.511 4.957 38.639z"/><circle cx="361.938" cy="339.666" r="7.5"/></symbol><symbol id="paint-roller" viewBox="0 0 512 512"><title>paint-roller</title><path d="m448.121 61.643h-24.304v-34.143c0-15.164-12.337-27.5-27.5-27.5h-318.657c-15.163 0-27.5 12.336-27.5 27.5v34.143h-14.917c-13.785 0-25 11.215-25 25s11.215 25 25 25h14.917v34.143c0 15.164 12.337 27.5 27.5 27.5h48.364v71.194c0 14.601 11.879 26.48 26.48 26.48s26.48-11.879 26.48-26.479l.009-71.195h100.422c3.638 10.284 13.454 17.674 24.969 17.674 11.518 0 21.338-7.39 24.977-17.674h66.955c15.163 0 27.5-12.336 27.5-27.5v-34.143h24.304c2.005 0 3.636 1.631 3.636 3.635v109.008c0 2.004-1.631 3.635-3.635 3.635h-164.197c-29.574 0-53.635 24.061-53.635 53.635v27.189c-11.288 3.426-19.528 13.926-19.528 26.318v149.437c0 15.164 12.337 27.5 27.5 27.5h35.479c15.163 0 27.5-12.336 27.5-27.5v-66.682c0-4.142-3.357-7.5-7.5-7.5s-7.5 3.358-7.5 7.5v66.682c0 6.893-5.607 12.5-12.5 12.5h-35.479c-6.893 0-12.5-5.607-12.5-12.5v-149.437c0-6.893 5.607-12.5 12.5-12.5h35.479c6.893 0 12.5 5.607 12.5 12.5v50.069c0 4.142 3.357 7.5 7.5 7.5s7.5-3.358 7.5-7.5v-50.069c0-12.906-8.94-23.759-20.95-26.706v-26.801c0-2.005 1.631-3.636 3.636-3.636h105.597c4.143 0 7.5-3.358 7.5-7.5s-3.357-7.5-7.5-7.5h-105.598c-10.275 0-18.636 8.36-18.636 18.636v26.006h-20v-26.007c0-21.304 17.331-38.635 38.635-38.635h164.198c10.275 0 18.635-8.359 18.635-18.635v-109.007c0-10.275-8.36-18.635-18.636-18.635h-24.304v-20h24.304c21.304 0 38.636 17.331 38.636 38.635v109.008c0 21.303-17.331 38.635-38.635 38.635h-25.914c-4.143 0-7.5 3.358-7.5 7.5s3.357 7.5 7.5 7.5h25.914c29.574 0 53.635-24.061 53.635-53.635v-109.008c0-29.574-24.061-53.635-53.636-53.635zm-412.878 35c-5.514 0-10-4.486-10-10s4.486-10 10-10h14.917v20zm42.417 61.643c-6.893 0-12.5-5.607-12.5-12.5v-118.286c0-6.893 5.607-12.5 12.5-12.5h48.364v143.286zm150.794-7.326c14.602 0 26.48-11.879 26.48-26.48v-13.2c0-6.336 5.154-11.49 11.49-11.49 6.33 0 11.479 5.154 11.479 11.49v47.006h-98.909l.01-77.006c0-6.336 5.149-11.49 11.48-11.49 6.336 0 11.49 5.154 11.49 11.49v43.2c.001 14.601 11.88 26.48 26.48 26.48zm180.363-5.174c0 6.893-5.607 12.5-12.5 12.5h-65.443v-72.8c0-4.142-3.357-7.5-7.5-7.5s-7.5 3.358-7.5 7.5v78.994c0 6.33-5.154 11.48-11.489 11.48-6.33 0-11.48-5.15-11.48-11.48v-53.2c0-14.607-11.879-26.49-26.479-26.49-14.606 0-26.49 11.883-26.49 26.49v13.2c0 6.33-5.15 11.48-11.48 11.48s-11.48-5.15-11.48-11.48v-43.2c0-14.607-11.884-26.49-26.49-26.49-14.601 0-26.48 11.883-26.48 26.489l-.011 84.504v.002.003l-.01 78.691c0 6.33-5.149 11.48-11.48 11.48-6.33 0-11.48-5.15-11.48-11.48v-229.479h174.85v37.8c0 4.142 3.357 7.5 7.5 7.5s7.5-3.358 7.5-7.5v-37.8h65.443c6.893 0 12.5 5.607 12.5 12.5v118.286z"/><path d="m152.505 284.385c-14.602 0-26.48 11.879-26.48 26.481v5.409c0 14.602 11.879 26.48 26.48 26.48 14.602 0 26.481-11.879 26.481-26.48v-5.409c0-14.601-11.88-26.481-26.481-26.481zm11.481 31.89c0 6.331-5.15 11.48-11.481 11.48-6.33 0-11.48-5.15-11.48-11.48v-5.409c0-6.331 5.15-11.481 11.48-11.481 6.331 0 11.481 5.15 11.481 11.481z"/><path d="m248.5 469.589c0 4.142 3.358 7.5 7.5 7.5s7.5-3.358 7.5-7.5c0-4.142-3.358-7.5-7.5-7.5s-7.5 3.358-7.5 7.5z"/></symbol></svg>