<?xml version="1.0" encoding="UTF-8"?>
<svg xmlns="http://www.w3.org/2000/svg" xmlns:xlink="http://www.w3.org/1999/xlink" version="1.1" width="512" height="512" x="0" y="0" viewBox="0 0 48 48" style="enable-background:new 0 0 512 512" xml:space="preserve">
  <g>
    <path fill-rule="evenodd" d="m24.54 29.02.56.97c.13.22.33.39.58.46.37.11.73.26 1.07.44.22.12.49.15.73.08l1.07-.29c.28.23.53.49.77.77l-.29 1.08c-.07.25-.04.51.08.73.18.34.33.7.44 1.07.07.24.24.45.46.58l.97.56c.03.36.03.72 0 1.08l-.97.56c-.22.13-.39.33-.46.58-.11.37-.26.73-.44 1.07-.12.22-.15.49-.08.73l.29 1.07c-.23.28-.49.53-.77.77l-1.08-.29a.972.972 0 0 0-.73.08c-.34.18-.7.33-1.07.44-.24.07-.45.24-.58.46l-.56.97c-.36.03-.72.03-1.08 0l-.56-.97a.987.987 0 0 0-.58-.46c-.37-.11-.73-.26-1.07-.44a.977.977 0 0 0-.73-.08l-1.07.29c-.28-.23-.53-.49-.77-.77l.29-1.08c.07-.25.04-.51-.08-.73-.18-.34-.33-.7-.44-1.07-.07-.24-.24-.45-.46-.58l-.97-.56c-.03-.36-.03-.72 0-1.08l.97-.56c.22-.13.39-.33.46-.58.11-.37.26-.73.44-1.07.12-.22.15-.49.08-.73l-.29-1.07c.23-.28.49-.53.77-.77l1.08.29c.25.07.51.04.73-.08.34-.18.7-.33 1.07-.44.24-.07.45-.24.58-.46l.56-.97c.36-.03.72-.03 1.08 0zM24 32c-2.21 0-4 1.79-4 4s1.79 4 4 4 4-1.79 4-4-1.79-4-4-4zm0 2c1.1 0 2 .9 2 2s-.9 2-2 2-2-.9-2-2 .9-2 2-2zm-8.95 2.99a9.24 9.24 0 0 1 .04-2.29c.05-.3.23-.57.49-.72 0 0 1.08-.62 1.07-.62.04-.12.09-.24.14-.36h-.31c-1.34 0-2.5-.93-2.79-2.24-.57-2.55-1.68-7.55-1.68-7.55s-.02-.22-.02-.39c0-.75.3-1.47.83-2 .33-.33.73-.57 1.17-.7v-3.6c0-1.4 1.13-2.53 2.53-2.53h4.84c.67 0 1.31.27 1.79.74l1.11 1.11c.1.1.23.15.37.15h6.84c1.4 0 2.53 1.13 2.53 2.53v1.6c.44.13.84.37 1.17.7.53.53.83 1.25.83 2 0 .17-.02.39-.02.39l-1.68 7.55A2.857 2.857 0 0 1 31.51 33h-.31c.05.12.1.24.14.36l1.08.62c.27.15.45.42.49.72.11.76.12 1.53.04 2.29h7.07c2.2 0 3.99-1.78 3.99-3.99V8.99c0-2.2-1.78-3.99-3.99-3.99H21.93c-.47.66-5.1 7.55-5.1 7.55-.19.28-.5.45-.83.45H4v20c0 2.2 1.78 3.99 3.99 3.99h7.07zM16.6 31c.03-.13.09-.26.17-.38.52-.7 1.14-1.32 1.84-1.84.25-.18.56-.24.86-.16 0 0 1.2.32 1.19.32.22-.1.45-.2.68-.28l.62-1.08c.15-.27.42-.45.72-.49.87-.13 1.74-.13 2.61 0 .3.05.57.23.72.49 0 0 .62 1.08.62 1.07.23.08.46.18.68.28l1.2-.32c.3-.08.61-.02.86.16.7.52 1.32 1.14 1.84 1.84.08.11.14.24.17.38h.12c.4 0 .75-.28.83-.67 0 0 1.66-7.45 1.66-7.44v-.06c0-.22-.09-.43-.24-.58s-.36-.24-.58-.24H14.83c-.22 0-.43.09-.58.24s-.24.36-.24.58l1.65 7.5c.09.39.43.67.83.67h.12zm-.61-11h16v-1.47c0-.29-.24-.53-.53-.53h-6.84c-.67 0-1.31-.27-1.79-.74l-1.11-1.11c-.1-.1-.23-.15-.37-.15h-4.84c-.29 0-.53.24-.53.53V20zm6-10.5c0 .66.26 1.3.73 1.77s1.1.73 1.77.73h14c.66 0 1.3-.26 1.77-.73s.73-1.1.73-1.77-.26-1.3-.73-1.77S39.16 7 38.49 7h-14c-.66 0-1.3.26-1.77.73s-.73 1.1-.73 1.77zM19.49 5H7.99C5.79 5 4 6.78 4 8.99V11h11.46l4.04-6zm4.5 4.5c0-.13.05-.26.15-.35a.51.51 0 0 1 .35-.15h14c.13 0 .26.05.35.15.09.09.15.22.15.35s-.05.26-.15.35a.51.51 0 0 1-.35.15h-14a.47.47 0 0 1-.35-.15.51.51 0 0 1-.15-.35zM8 7c.55 0 1 .45 1 1s-.45 1-1 1-1-.45-1-1 .45-1 1-1zm4 0c.55 0 1 .45 1 1s-.45 1-1 1-1-.45-1-1 .45-1 1-1z" fill="#1363a3" opacity="1" data-original="#000000"/>
  </g>
</svg>
