<?xml version="1.0" encoding="UTF-8"?>
<svg xmlns="http://www.w3.org/2000/svg" xmlns:xlink="http://www.w3.org/1999/xlink" version="1.1" width="512" height="512" x="0" y="0" viewBox="0 0 512 512" style="enable-background:new 0 0 512 512" xml:space="preserve" class="">
  <g>
    <path fill-rule="evenodd" d="M206.875 298.376c-17.215-5.584-33.65 1.924-48.399 10.463L98.19 343.743l44.645 78.885 11.126-6.423a7.942 7.942 0 0 1 6.025-.789l118.677 31.774c14.958 4.009 29.107 2.197 42.333-5.944 54.572-33.512 109.078-67.134 163.61-100.712 8.294-5.106 9.369-19.056 4.454-26.974-10.84-17.466-40.865-2.925-53.339 4.34l-90.155 52.511c-7.141 4.158-14.486 6.801-22.109 8.081-7.527 1.264-15.278 1.176-23.331-.112l-10.637-1.725c-.401-.065-.799-.123-1.194-.219-20.255-4.161-39.873-10.494-59.815-15.837a7.99 7.99 0 0 1 4.125-15.437c19.498 5.224 38.824 11.503 58.59 15.59 10.041 1.228 18.325-1.939 21.112-12.339 2.528-9.435-3.421-18.327-12.333-21.414-27.075-4.956-53.354-14.456-74.017-21.926-7.189-2.598-13.686-4.947-19.082-6.697zm106.083-145.615c4.712-4.711 12.42-4.711 17.131 0l12.274 12.274 33.209-33.209c4.711-4.711 12.42-4.711 17.131 0s4.711 12.42 0 17.131l-41.538 41.538c-6.006 6.006-14.04 3.565-19.366-1.761l-18.842-18.841c-4.711-4.712-4.71-12.421.001-17.132zm147.941-16.172a110.307 110.307 0 0 0-13.396-32.316l9.321-20.988-24.743-24.743-20.994 9.324a110.349 110.349 0 0 0-32.308-13.394l-8.246-21.424h-34.991l-8.247 21.424a110.354 110.354 0 0 0-32.307 13.394l-20.994-9.324-24.743 24.744 9.323 20.992a110.306 110.306 0 0 0-13.394 32.31l-21.422 8.246v34.992l21.419 8.244a110.334 110.334 0 0 0 13.396 32.316l-9.321 20.987 24.743 24.743 20.994-9.324a110.313 110.313 0 0 0 32.307 13.393l8.246 21.424h34.992l8.244-21.419a110.319 110.319 0 0 0 32.316-13.396l20.987 9.322 24.743-24.744-9.324-20.994a110.34 110.34 0 0 0 13.393-32.307l21.423-8.246v-34.992zM352.83 229.813c-37.922 0-68.664-30.742-68.664-68.664 0-37.923 30.742-68.665 68.664-68.665s68.665 30.742 68.665 68.665c0 37.922-30.743 68.664-68.665 68.664zm-203.095-69.649 10.993 28.953c.33.87 1.1 1.429 2.029 1.474l30.933 1.508c2.104.102 2.965 2.753 1.323 4.072l-24.139 19.402a2.246 2.246 0 0 0-.775 2.386l8.125 29.885c.552 2.032-1.701 3.67-3.464 2.517l-25.912-16.962a2.247 2.247 0 0 0-2.508 0l-25.911 16.962c-1.762 1.153-4.016-.484-3.464-2.517l8.125-29.885a2.248 2.248 0 0 0-.775-2.386l-24.139-19.402c-1.642-1.32-.781-3.97 1.323-4.072l30.933-1.508a2.249 2.249 0 0 0 2.03-1.474l10.992-28.953c.742-1.958 3.538-1.958 4.281 0zm0-138.825 10.992 28.953c.331.87 1.1 1.429 2.03 1.474l30.932 1.508c2.104.102 2.965 2.753 1.323 4.072l-24.139 19.402a2.25 2.25 0 0 0-.775 2.386l8.125 29.885c.553 2.032-1.701 3.67-3.464 2.517l-25.911-16.962a2.247 2.247 0 0 0-2.508 0l-25.911 16.962c-1.762 1.154-4.017-.484-3.464-2.517l8.125-29.885a2.25 2.25 0 0 0-.775-2.386l-24.139-19.402c-1.642-1.319-.78-3.97 1.323-4.072l30.933-1.508a2.246 2.246 0 0 0 2.029-1.474l10.993-28.953c.742-1.958 3.537-1.958 4.281 0zm-5.26 436.673L70.108 326.61c-3.596-6.354-11.736-8.61-18.09-5.014l-25.295 14.316c-6.354 3.596-8.61 11.736-5.014 18.09l74.368 131.402c3.596 6.354 11.736 8.61 18.09 5.014l25.295-14.316c6.352-3.596 8.609-11.737 5.013-18.09zm-88.807-93.833a9.032 9.032 0 1 1-2.612-17.874 9.032 9.032 0 0 1 2.612 17.874z" clip-rule="evenodd" fill="#1363a3" opacity="1" data-original="#000000" class=""/>
  </g>
</svg>
