<?xml version="1.0" encoding="UTF-8"?>
<svg xmlns="http://www.w3.org/2000/svg" xmlns:xlink="http://www.w3.org/1999/xlink" version="1.1" width="512" height="512" x="0" y="0" viewBox="0 0 682.667 682.667" style="enable-background:new 0 0 512 512" xml:space="preserve" class="">
  <g>
    <defs>
      <clipPath id="a">
        <path d="M0 512h512V0H0Z" fill="#1363a3" opacity="1" data-original="#000000" class=""/>
      </clipPath>
    </defs>
    <g clip-path="url(#a)" transform="matrix(1.33333 0 0 -1.33333 0 682.667)">
      <path d="M0 0v-45.3" style="stroke-width:15;stroke-linecap:round;stroke-linejoin:round;stroke-miterlimit:10;stroke-dasharray:none;stroke-opacity:1" transform="translate(323.374 504.5)" fill="none" stroke="#1363a3" stroke-width="15" stroke-linecap="round" stroke-linejoin="round" stroke-miterlimit="10" stroke-dasharray="none" stroke-opacity="" data-original="#000000" opacity="1"/>
      <path d="M0 0h-105.597c-6.15 0-11.135-4.986-11.135-11.136v-33.506" style="stroke-width:15;stroke-linecap:round;stroke-linejoin:round;stroke-miterlimit:10;stroke-dasharray:none;stroke-opacity:1" transform="translate(389.522 241.58)" fill="none" stroke="#1363a3" stroke-width="15" stroke-linecap="round" stroke-linejoin="round" stroke-miterlimit="10" stroke-dasharray="none" stroke-opacity="" data-original="#000000" opacity="1"/>
      <path d="M0 0h31.804c25.479 0 46.134-20.655 46.134-46.135v-109.008c0-25.48-20.655-46.135-46.134-46.135H5.89" style="stroke-width:15;stroke-linecap:round;stroke-linejoin:round;stroke-miterlimit:10;stroke-dasharray:none;stroke-opacity:1" transform="translate(416.318 442.857)" fill="none" stroke="#1363a3" stroke-width="15" stroke-linecap="round" stroke-linejoin="round" stroke-miterlimit="10" stroke-dasharray="none" stroke-opacity="" data-original="#000000" opacity="1"/>
      <path d="M0 0h-22.416c-9.665 0-17.5 7.835-17.5 17.5s7.835 17.5 17.5 17.5H0" style="stroke-width:15;stroke-linecap:round;stroke-linejoin:round;stroke-miterlimit:10;stroke-dasharray:none;stroke-opacity:1" transform="translate(57.66 407.857)" fill="none" stroke="#1363a3" stroke-width="15" stroke-linecap="round" stroke-linejoin="round" stroke-miterlimit="10" stroke-dasharray="none" stroke-opacity="" data-original="#000000" opacity="1"/>
      <path d="M0 0v33.515C0 58.994 20.655 79.65 46.135 79.65h164.198c6.149 0 11.135 4.985 11.135 11.135v109.007c0 6.15-4.986 11.136-11.135 11.136h-31.804" style="stroke-width:15;stroke-linecap:round;stroke-linejoin:round;stroke-miterlimit:10;stroke-dasharray:none;stroke-opacity:1" transform="translate(237.79 196.93)" fill="none" stroke="#1363a3" stroke-width="15" stroke-linecap="round" stroke-linejoin="round" stroke-miterlimit="10" stroke-dasharray="none" stroke-opacity="" data-original="#000000" opacity="1"/>
      <path d="M0 0h-113.96" style="stroke-width:15;stroke-linecap:round;stroke-linejoin:round;stroke-miterlimit:10;stroke-dasharray:none;stroke-opacity:1" transform="translate(285.454 346.214)" fill="none" stroke="#1363a3" stroke-width="15" stroke-linecap="round" stroke-linejoin="round" stroke-miterlimit="10" stroke-dasharray="none" stroke-opacity="" data-original="#000000" opacity="1"/>
      <path d="M0 0h-55.864c-11.046 0-20 8.955-20 20v118.286c0 11.046 8.954 20 20 20h318.657c11.046 0 20-8.954 20-20V20c0-11.045-8.954-20-20-20h-72.989" style="stroke-width:15;stroke-linecap:round;stroke-linejoin:round;stroke-miterlimit:10;stroke-dasharray:none;stroke-opacity:1" transform="translate(133.524 346.214)" fill="none" stroke="#1363a3" stroke-width="15" stroke-linecap="round" stroke-linejoin="round" stroke-miterlimit="10" stroke-dasharray="none" stroke-opacity="" data-original="#000000" opacity="1"/>
      <path d="M0 0v-66.682c0-11.046-8.954-20-20-20h-35.479c-11.045 0-20 8.954-20 20V82.755c0 11.046 8.955 20 20 20H-20c11.046 0 20-8.954 20-20V32.687" style="stroke-width:15;stroke-linecap:round;stroke-linejoin:round;stroke-miterlimit:10;stroke-dasharray:none;stroke-opacity:1" transform="translate(293.74 94.182)" fill="none" stroke="#1363a3" stroke-width="15" stroke-linecap="round" stroke-linejoin="round" stroke-miterlimit="10" stroke-dasharray="none" stroke-opacity="" data-original="#000000" opacity="1"/>
      <path d="M0 0v-78.994c0-10.48-8.5-18.98-18.989-18.98-10.481 0-18.981 8.5-18.981 18.98v53.2c0 10.49-8.5 18.99-18.979 18.99-10.49 0-18.99-8.5-18.99-18.99v-13.2c0-10.48-8.5-18.98-18.981-18.98-10.479 0-18.979 8.5-18.979 18.98v43.2c0 10.49-8.5 18.99-18.991 18.99-10.479 0-18.979-8.5-18.979-18.99l-.021-163.2c0-10.48-8.49-18.98-18.979-18.98-10.481 0-18.981 8.5-18.981 18.98v236.98" style="stroke-width:15;stroke-linecap:round;stroke-linejoin:round;stroke-miterlimit:10;stroke-dasharray:none;stroke-opacity:1" transform="translate(323.374 426.514)" fill="none" stroke="#1363a3" stroke-width="15" stroke-linecap="round" stroke-linejoin="round" stroke-miterlimit="10" stroke-dasharray="none" stroke-opacity="" data-original="#000000" opacity="1"/>
      <path d="M0 0v0c-10.482 0-18.98 8.498-18.98 18.98v5.41c0 10.483 8.498 18.98 18.98 18.98 10.483 0 18.981-8.497 18.981-18.98v-5.41C18.981 8.498 10.483 0 0 0Z" style="stroke-width:15;stroke-linecap:round;stroke-linejoin:round;stroke-miterlimit:10;stroke-dasharray:none;stroke-opacity:1" transform="translate(152.505 176.744)" fill="none" stroke="#1363a3" stroke-width="15" stroke-linecap="round" stroke-linejoin="round" stroke-miterlimit="10" stroke-dasharray="none" stroke-opacity="" data-original="#000000" opacity="1"/>
      <path d="M0 0a7.5 7.5 0 0 0-7.5 7.5A7.5 7.5 0 0 0 0 15a7.5 7.5 0 0 0 7.5-7.5A7.5 7.5 0 0 0 0 0" style="fill-opacity:1;fill-rule:nonzero;stroke:none" transform="translate(256 34.911)" fill="#1363a3" data-original="#000000" class="" opacity="1"/>
    </g>
  </g>
</svg>
