<?xml version="1.0" encoding="UTF-8"?>
<svg xmlns="http://www.w3.org/2000/svg" xmlns:xlink="http://www.w3.org/1999/xlink" version="1.1" width="512" height="512" x="0" y="0" viewBox="0 0 512 512" style="enable-background:new 0 0 512 512" xml:space="preserve" class="">
  <g>
    <path d="M126.016 283.128c-27.285 0-49.483 22.198-49.483 49.484 0 27.285 22.198 49.483 49.483 49.483 27.286 0 49.484-22.198 49.484-49.483s-22.198-49.484-49.484-49.484zm0 83.968c-19.015 0-34.483-15.469-34.483-34.483s15.469-34.484 34.483-34.484 34.484 15.47 34.484 34.484-15.47 34.483-34.484 34.483z" fill="#1363a3" opacity="1" data-original="#000000" class=""/>
    <path d="M126.016 308.128c-13.5 0-24.483 10.983-24.483 24.484 0 13.5 10.983 24.483 24.483 24.483 13.501 0 24.484-10.983 24.484-24.483s-10.983-24.484-24.484-24.484zm0 33.968c-5.229 0-9.483-4.254-9.483-9.483s4.254-9.484 9.483-9.484 9.484 4.255 9.484 9.484-4.255 9.483-9.484 9.483zM426.218 402.025c-9.356 5.401-16.053 14.137-18.855 24.596s-1.37 21.371 4.031 30.728c5.402 9.356 14.137 16.053 24.596 18.855a40.778 40.778 0 0 0 10.57 1.401c7.014 0 13.932-1.837 20.158-5.433 19.34-11.165 25.99-35.983 14.824-55.324-11.167-19.338-35.983-25.991-55.324-14.823zm44.866 41.67c-1.766 6.589-5.979 12.089-11.866 15.487-12.175 7.029-27.803 2.844-34.834-9.334-3.398-5.887-4.298-12.757-2.532-19.346s5.979-12.089 11.866-15.487a25.35 25.35 0 0 1 12.707-3.411c8.819 0 17.409 4.573 22.127 12.744 3.399 5.887 4.298 12.758 2.532 19.347zM290.658 402.025c-9.355-5.403-20.271-6.835-30.728-4.031-10.459 2.802-19.194 9.498-24.596 18.854s-6.834 20.27-4.031 30.729c2.802 10.459 9.498 19.194 18.854 24.596 6.228 3.596 13.145 5.433 20.158 5.433 3.524 0 7.073-.464 10.57-1.401 10.459-2.803 19.194-9.499 24.596-18.855 5.402-9.355 6.834-20.269 4.031-30.728s-9.498-19.196-18.854-24.597zm1.834 47.823c-3.398 5.887-8.898 10.102-15.487 11.866-6.589 1.768-13.46.866-19.347-2.532s-10.101-8.898-11.866-15.487-.865-13.46 2.533-19.347 8.898-10.101 15.487-11.866a25.725 25.725 0 0 1 6.663-.883 25.3 25.3 0 0 1 12.683 3.416c5.887 3.398 10.102 8.898 11.866 15.487 1.766 6.589.866 13.459-2.532 19.346z" fill="#1363a3" opacity="1" data-original="#000000" class=""/>
    <path d="M503.193 404.348c-15.286-26.476-46.373-38.809-75.608-29.981-5.107 1.538-10.474-.1-13.673-4.176v.001l-16.74-21.327c-.036-.046-.079-.083-.115-.128l23.009-39.853a7.5 7.5 0 0 0-12.99-7.5l-39.183 67.866-32.043-18.5 97.537-168.939c13.5 21.615 14.27 49.286 1.242 71.849l-10.022 17.359a7.5 7.5 0 0 0 12.99 7.5l10.022-17.359c18.055-31.27 14.299-70.614-9.347-97.904a7.483 7.483 0 0 0-6.381-2.555 7.498 7.498 0 0 0-5.782 3.716l-54.99 95.244-7.469-7.468 16.317-16.316c2.382-2.383 3.694-5.551 3.694-8.92s-1.312-6.537-3.694-8.92l-16.452-16.451 16.317-16.316c4.918-4.918 4.918-12.921 0-17.839l-16.452-16.452 16.32-16.319c4.915-4.917 4.915-12.918-.001-17.837l-16.114-16.114 16.654-16.654c4.918-4.918 4.918-12.921 0-17.839l-30.948-30.948a7.49 7.49 0 0 0-5.642-2.188 7.466 7.466 0 0 0-5.641 2.188l-19.73 19.729-15.979-15.979c-4.92-4.918-12.92-4.918-17.84 0L268.008 55.47l-16.316-16.317a12.523 12.523 0 0 0-3.59-2.498V22.058c0-6.893-5.607-12.5-12.5-12.5H52.467c-6.893 0-12.5 5.607-12.5 12.5v58.538H12.5c-6.893 0-12.5 5.607-12.5 12.5v305c0 6.893 5.607 12.5 12.5 12.5H32v76.081c0 4.122 2.319 7.767 6.054 9.513a10.557 10.557 0 0 0 4.474 1.004c2.4 0 4.767-.838 6.708-2.461l32.987-27.583a7.497 7.497 0 0 0 2.689-5.754v-44.242c12.424 6.065 26.373 9.474 41.104 9.474 19.184 0 37.307-5.854 52.439-16.032h32.055c-6.131 13.78-7.314 29.112-3.258 43.867 4.681 17.023 15.747 31.154 31.16 39.788 9.917 5.556 20.732 8.191 31.459 8.19 22.909-.002 45.391-12.032 57.694-33.342l30.873-53.474 30.873 53.474c12.305 21.312 34.784 33.342 57.695 33.342 10.725 0 21.544-2.636 31.458-8.19 15.414-8.634 26.48-22.765 31.16-39.788 4.681-17.026 2.397-34.824-6.431-50.115zm-174.777-70.723-46.168-79.966c-13.026-22.562-12.257-50.233 1.242-71.849l66.288 114.814zM259.09 67.766c4.918 4.916 12.919 4.915 17.837-.001l16.452-16.453 15.979 15.979a12.536 12.536 0 0 0 8.92 3.694c3.37 0 6.538-1.312 8.918-3.694l16.453-16.452 24.295 24.296L351.29 91.79c-4.918 4.918-4.918 12.921 0 17.839l16.114 16.114-16.317 16.316a12.536 12.536 0 0 0-3.694 8.92c0 3.368 1.312 6.536 3.694 8.919l16.452 16.451-16.316 16.316c-4.918 4.919-4.918 12.921 0 17.84l16.452 16.451-16.317 16.316c-4.918 4.919-4.918 12.921.001 17.84l11.997 11.996-4.917 8.516L330 232.37V93.096c0-6.893-5.607-12.5-12.5-12.5h-69.398v-23.82zM54.967 24.558h38.145L54.967 62.703zm0 59.358 59.358-59.358h28.149l-87.508 87.507V83.916zm0 49.363L163.688 24.558H194.8L54.967 164.391zm0 52.327L216.015 24.558h17.087v17.087l-99.365 99.365a7.5 7.5 0 1 0 10.608 10.607l88.758-88.758V93.97L124.38 202.693H93.269l26.326-26.326a7.5 7.5 0 0 0-10.607-10.607l-36.934 36.934H54.967zm118.776 17.087h-28.149l87.508-87.508v28.149zm59.359-38.145v38.144h-38.145zM69.912 457.891 47 477.049v-93.544a94.775 94.775 0 0 0 22.912 24.503zM47 332.613c0-43.57 35.446-79.017 79.016-79.017a78.931 78.931 0 0 1 51.895 19.436c14.235 12.415 23.567 29.488 26.277 48.073.599 4.1 4.418 6.93 8.504 6.34a7.5 7.5 0 0 0 6.34-8.504c-3.228-22.127-14.329-42.446-31.262-57.213a93.93 93.93 0 0 0-61.754-23.132C74.175 238.596 32 280.772 32 332.613v62.983H15v-300h24.967v109.597c0 6.893 5.607 12.5 12.5 12.5h183.135c6.893 0 12.5-5.607 12.5-12.5V95.596H315v110.793l-24.233-41.972a7.5 7.5 0 0 0-12.163-1.161c-23.645 27.289-27.4 66.634-9.347 97.904L315 340.388v14.47l-12.036 15.333c-3.2 4.076-8.565 5.712-13.673 4.175-25.783-7.783-53.01.901-69.567 21.229h-23.948c9.758-10.785 17.112-23.906 21.052-38.635a7.501 7.501 0 0 0-14.491-3.877c-9.221 34.47-40.606 58.544-76.323 58.544C82.446 411.628 47 376.182 47 332.613zM314.575 461.6c-13.981 24.218-44.856 32.995-68.832 19.565-11.886-6.658-20.419-17.554-24.027-30.678-3.609-13.128-1.849-26.851 4.958-38.64 9.239-16.001 25.957-25.301 43.604-25.301 4.867 0 9.809.709 14.68 2.179 11.062 3.339 22.764-.3 29.806-9.272l12.725-16.21 32.904 18.997zm180.586-11.112c-3.607 13.124-12.141 24.02-24.026 30.678-23.973 13.429-54.852 4.652-68.833-19.565l-35.203-60.974 21.229-36.769 1.061-.613 12.725 16.21v.001c7.043 8.971 18.745 12.611 29.806 9.271 22.533-6.801 46.497 2.708 58.284 23.122 6.805 11.788 8.566 25.511 4.957 38.639z" fill="#1363a3" opacity="1" data-original="#000000" class=""/>
    <circle cx="361.938" cy="339.666" r="7.5" fill="#1363a3" opacity="1" data-original="#000000" class=""/>
  </g>
</svg>
