<?xml version="1.0" encoding="UTF-8"?>
<svg xmlns="http://www.w3.org/2000/svg" xmlns:xlink="http://www.w3.org/1999/xlink" version="1.1" width="512" height="512" x="0" y="0" viewBox="0 0 43.349 43.349" style="enable-background:new 0 0 512 512" xml:space="preserve" fill-rule="evenodd" class="">
  <g>
    <path d="M1.137 33.268h36.28v4.031H1.137z" fill="#1363a3" opacity="1" data-original="#000000" class=""/>
    <path fill-rule="nonzero" d="M4.644 10.99a.542.542 0 0 0 1.083 0V9.091a.542.542 0 0 0-1.083 0z" fill="#1363a3" opacity="1" data-original="#000000" class=""/>
    <path d="M3.932 7.088h2.507v2.304H3.932z" fill="#1363a3" opacity="1" data-original="#000000" class=""/>
    <g fill-rule="nonzero">
      <path d="M3.513 15.933a.542.542 0 0 0 0-1.083H.794a.542.542 0 0 0 0 1.083zM5.952 27.592a.542.542 0 0 0-1.084 0v4.648a.542.542 0 0 0 1.084 0v-3.235z" fill="#1363a3" opacity="1" data-original="#000000" class=""/>
      <path d="M5.41 30.458a.542.542 0 1 0 0-1.083H3.643a.542.542 0 0 0 0 1.083z" fill="#1363a3" opacity="1" data-original="#000000" class=""/>
    </g>
    <path d="M1.585 28.638h2.437v2.557H1.585z" fill="#1363a3" opacity="1" data-original="#000000" class=""/>
    <path fill-rule="nonzero" d="M28.66 10.933a.542.542 0 1 0 1.084 0V6.592a.542.542 0 0 0-1.083 0z" fill="#1363a3" opacity="1" data-original="#000000" class=""/>
    <path d="M41.274 11.804v10.125c0 .571.467 1.038 1.038 1.038s1.037-.467 1.037-1.038V10.692c0-.57-.467-1.037-1.037-1.037s-1.038.467-1.038 1.037zM38.777 14.055v5.735l1.775 1.028v-9.014l-1.775 1.028zM35.3 14.055c.455 1.15.608 2.642.36 4.511h2.395v-4.51zM3.027 22.686a117.5 117.5 0 0 1-.141-2.357h-1.71v-.503H0v3.364h1.176v-.504zM7.402 14.802a1.211 1.211 0 1 1 0 2.423 1.211 1.211 0 0 1 0-2.423zm2.628 4.196c6.89-1.787 13.138-.407 14.471-.07 4.699 1.188 0 9.226-.155 13.618h10.428c-.456-4.77-1.06-6.895-.006-12.949.07-.355.126-.699.17-1.03.247-1.87.094-3.361-.361-4.512-.886-2.236-2.915-3.186-5.374-3.122-1.976.052-4.228.757-6.388 1.974-6.584 3.71-15.314-1.874-16.64-1.932-.21-.01-.604 0-.99.014-.458.017-.904.04-1.01.042-.423.564-.612 2.15-.662 4.131l-.006.23c-.03 1.522.017 3.259.101 4.937.04.81.09 1.605.142 2.357.155 2.219.344 4.056.449 4.734.36.166.803.197 1.211.172.65-.04 1.212-.22 1.212-.22.295-2.972-.146-7.45 3.408-8.374zm19.172-.82a2.164 2.164 0 1 1 0-4.328 2.164 2.164 0 0 1 0 4.327z" fill="#1363a3" opacity="1" data-original="#000000" class=""/>
  </g>
</svg>
