<?xml version="1.0" encoding="UTF-8"?>
<svg xmlns="http://www.w3.org/2000/svg" xmlns:xlink="http://www.w3.org/1999/xlink" version="1.1" width="512" height="512" x="0" y="0" viewBox="0 0 64 64" style="enable-background:new 0 0 512 512" xml:space="preserve" class="">
  <g>
    <path d="M13 57h38v4H13zM3 41.221a1.225 1.225 0 0 0 .268.763A10.649 10.649 0 0 0 11.624 46H12v-6H4.221A1.223 1.223 0 0 0 3 41.221zM48 43h2v-4H14v9h8v2h-4.109A6.98 6.98 0 0 1 20 55h23.11a6.979 6.979 0 0 1 0-10H41v-2zM17.82 34l-.6 3h15.56l-.601-3.001zM10.29 20.706l1.413-1.414 6.999 6.999-1.414 1.414zM7.29 17.706l1.414-1.414 2 2-1.414 1.414zM6.759 29.983l.486-1.94 7.998 2.004-.486 1.94zM29.198 26.392l3-4 1.6 1.2-3 4zM4.4 21.8l1.2-1.6 4 3-1.2 1.6zM49.408 11.005l2.585-2.586 8.585 8.585-2.586 2.585zM23.646 22.232a2.684 2.684 0 0 0 3.708 0L28.586 21 21 13.414l-1.232 1.232a2.622 2.622 0 0 0 0 3.708z" fill="#1363a3" opacity="1" data-original="#000000" class=""/>
    <path d="m55.257 30.671-4.151-4.15a22.338 22.338 0 0 0 3.47-7.531l-5.313-5.313A7.831 7.831 0 0 1 44.921 15h-2.57l-1.536 1.229-3.03-3.014L40 11l-2.5-2.5-.707-.707 3.762-3.762a5.039 5.039 0 0 0-6.616.444L24.414 14l3.086 3.086 1.793-1.793L30 16l2 2 .5.5 1.708-1.708 3.765 3.766a5.561 5.561 0 0 1-1.384 3.409 2.336 2.336 0 0 0 .181 3.284l5.6 5.061a2.743 2.743 0 0 0 3.732-.156l1.676-1.789 3.89 3.89a2.536 2.536 0 1 0 3.586-3.586z" fill="#1363a3" opacity="1" data-original="#000000" class=""/>
  </g>
</svg>
