<?xml version="1.0" encoding="UTF-8"?>
<svg xmlns="http://www.w3.org/2000/svg" xmlns:xlink="http://www.w3.org/1999/xlink" version="1.1" width="512" height="512" x="0" y="0" viewBox="0 0 512 512" style="enable-background:new 0 0 512 512" xml:space="preserve" class="">
  <g>
    <path d="M90.289 436.498h331.51v60.283H90.289zM393.342 74.155c-10.829 0-21.442 1.437-31.702 4.28-8.736-16.557-21.274-30.808-36.811-41.72-20.022-14.062-43.58-21.495-68.126-21.495-24.656 0-48.301 7.494-68.378 21.672-15.537 10.973-28.049 25.278-36.741 41.886-10.635-3.073-21.659-4.624-32.928-4.624C53.229 74.155 0 127.385 0 192.812c0 55.016 37.981 102.405 90.285 115.238v98.389h331.511v-98.41C474.052 295.163 512 247.78 512 192.811c0-65.426-53.229-118.656-118.658-118.656z" fill="#1363a3" opacity="1" data-original="#000000" class=""/>
  </g>
</svg>
