<?xml version="1.0" encoding="UTF-8"?>
<svg xmlns="http://www.w3.org/2000/svg" xmlns:xlink="http://www.w3.org/1999/xlink" version="1.1" width="512" height="512" x="0" y="0" viewBox="0 0 60 60" style="enable-background:new 0 0 512 512" xml:space="preserve" class="">
  <g>
    <path d="M54.71 53.46 38.54 37.29c.91-3.39-.04-6.96-2.54-9.45a9.766 9.766 0 0 0-9.32-2.58c-.35.08-.62.35-.72.7s0 .72.25.97l4.85 4.86-.87 4.13-4.14.88-4.85-4.85a.97.97 0 0 0-.97-.26c-.35.09-.62.37-.7.72-.85 3.38.11 6.87 2.57 9.33 2.5 2.5 6.08 3.45 9.46 2.54l10.59 10.59c.19.19.44.29.71.29H54c.41 0 .77-.24.93-.61.15-.38.07-.82-.22-1.09zM6.08 7.46c-.55 0-1 .45-1 1L5 21.16c0 .55.45 1 1 1.01l6.9.04c-.01-.16-.05-.31-.04-.47l.08-13.77c0-.16.03-.31.05-.47l-6.9-.04z" fill="#1363a3" opacity="1" data-original="#000000" class=""/>
    <path d="M21.39 24.95c1.56 0 2.85-1.16 3.1-2.65l10.83.03a3.156 3.156 0 0 0 3.1 2.73l3.38.02h.02c1.73 0 3.14-1.4 3.15-3.14l.08-13.77A3.15 3.15 0 0 0 41.92 5l-3.38-.02a3.12 3.12 0 0 0-3.12 2.65l-10.83-.04a3.147 3.147 0 0 0-3.1-2.72l-3.38-.02c-.87-.01-1.63.32-2.23.91s-.93 1.38-.94 2.22l-.08 13.77a3.158 3.158 0 0 0 3.13 3.18l3.38.02zM53.91 7.75l-6.9-.04c.01.16.04.31.04.46l-.08 13.77c0 .16-.04.31-.05.47l6.91.04c.55 0 1-.44 1-.99l.08-12.7c0-.27-.11-.52-.29-.71a1 1 0 0 0-.71-.3zM10.86 32.44h.02c.9 0 1.71-.36 2.3-.95s.96-1.39.96-2.29c.01-1.44-1.83-4.35-2.39-5.21-.19-.28-.5-.45-.83-.45h-.01c-.33 0-.64.16-.83.44-.57.85-2.45 3.74-2.45 5.18a3.259 3.259 0 0 0 3.23 3.28z" fill="#1363a3" opacity="1" data-original="#000000" class=""/>
  </g>
</svg>
