<?xml version="1.0" encoding="UTF-8"?>
<svg xmlns="http://www.w3.org/2000/svg" xmlns:xlink="http://www.w3.org/1999/xlink" version="1.1" width="512" height="512" x="0" y="0" viewBox="0 0 66 66" style="enable-background:new 0 0 512 512" xml:space="preserve">
  <g>
    <path d="M33 19.93c-3.89 0-7.05 3.16-7.05 7.05 0 3.79 2.96 9.4 7.05 9.4s7.05-5.62 7.05-9.4c0-3.88-3.16-7.05-7.05-7.05zm0 14.46c-2.5 0-5.05-4.31-5.05-7.4 0-2.78 2.27-5.05 5.05-5.05s5.05 2.27 5.05 5.05c0 3.09-2.54 7.4-5.05 7.4zM33 42.04l-2.82-5.39h-2.63c-3.99 0-7.23 3.24-7.23 7.23v9.07H45.7v-9.07c0-3.99-3.25-7.23-7.24-7.23h-2.63zm5.45-3.4c2.89 0 5.24 2.35 5.24 5.23v7.07H22.32v-7.07c0-2.89 2.35-5.23 5.23-5.23h1.42l3.09 5.91.26.58 1.41-.03.23-.58 3.08-5.87h1.41zM52.31 29.51c4.09 0 7.05-5.62 7.05-9.4 0-3.89-3.16-7.05-7.05-7.05s-7.05 3.16-7.05 7.05c0 3.78 2.96 9.4 7.05 9.4zm0-14.46c2.78 0 5.05 2.27 5.05 5.05 0 3.1-2.54 7.4-5.05 7.4s-5.05-4.31-5.05-7.4c0-2.78 2.27-5.05 5.05-5.05z" fill="#1363a3" opacity="1" data-original="#000000"/>
    <path d="M57.76 29.76h-2.63l-2.82 5.4-2.82-5.4h-2.63a7.19 7.19 0 0 0-6.84 4.91l1.9.63a5.199 5.199 0 0 1 4.94-3.55h1.41l3.09 5.91c.18.36.54.58.94.58l.66-.03 3.38-6.46h1.41c2.89 0 5.24 2.35 5.24 5.23v7.07h-15.3v2H65v-9.07c0-3.98-3.25-7.22-7.24-7.22zM6.64 20.1c0 3.79 2.96 9.4 7.05 9.4s7.05-5.62 7.05-9.4c0-3.89-3.16-7.05-7.05-7.05s-7.05 3.17-7.05 7.05zm12.1 0c0 3.1-2.54 7.4-5.05 7.4s-5.05-4.31-5.05-7.4c0-2.78 2.27-5.05 5.05-5.05s5.05 2.27 5.05 5.05zM18.32 44.06H3v-7.07c0-2.88 2.35-5.23 5.24-5.23h1.41l3.09 5.91c.18.36.54.58.94.58l.66-.03 3.38-6.46h1.41c2.25 0 4.24 1.43 4.95 3.55l1.9-.64a7.212 7.212 0 0 0-6.85-4.91H16.5l-2.82 5.4-2.82-5.4H8.24C4.25 29.76 1 33 1 36.99v9.07h17.32z" fill="#1363a3" opacity="1" data-original="#000000"/>
  </g>
</svg>
